<?xml version="1.0" encoding="UTF-8" standalone="no"?>
<!DOCTYPE svg PUBLIC "-//W3C//DTD SVG 1.1//EN"
 "http://www.w3.org/Graphics/SVG/1.1/DTD/svg11.dtd">
<!-- Generated by graphviz version 14.1.5 (20260411.2331)
 -->
<!-- Pages: 1 -->
<svg width="1193pt" height="528pt"
 viewBox="0.00 0.00 1193.00 528.00" xmlns="http://www.w3.org/2000/svg" xmlns:xlink="http://www.w3.org/1999/xlink">
<g id="graph0" class="graph" transform="scale(1 1) rotate(0) translate(4 523.5)">
<polygon fill="white" stroke="none" points="-4,4 -4,-523.5 1188.75,-523.5 1188.75,4 -4,4"/>
<text xml:space="preserve" text-anchor="middle" x="592.38" y="-502.2" font-family="Helvetica,sans-Serif" font-size="14.00">source&#45;a + source&#45;b — refused: MergeIncompleteError</text>
<g id="clust1" class="cluster">
<title>cluster_left</title>
<path fill="none" stroke="#b0b0b0" d="M331.5,-8C331.5,-8 445.25,-8 445.25,-8 451.25,-8 457.25,-14 457.25,-20 457.25,-20 457.25,-426 457.25,-426 457.25,-432 451.25,-438 445.25,-438 445.25,-438 331.5,-438 331.5,-438 325.5,-438 319.5,-432 319.5,-426 319.5,-426 319.5,-20 319.5,-20 319.5,-14 325.5,-8 331.5,-8"/>
<text xml:space="preserve" text-anchor="middle" x="388.38" y="-424.5" font-family="Helvetica,sans-Serif" font-size="10.00">left</text>
</g>
<g id="clust2" class="cluster">
<title>cluster_merged</title>
<path fill="none" stroke="#b0b0b0" d="M871.5,-167C871.5,-167 980,-167 980,-167 986,-167 992,-173 992,-179 992,-179 992,-342 992,-342 992,-348 986,-354 980,-354 980,-354 871.5,-354 871.5,-354 865.5,-354 859.5,-348 859.5,-342 859.5,-342 859.5,-179 859.5,-179 859.5,-173 865.5,-167 871.5,-167"/>
<text xml:space="preserve" text-anchor="middle" x="925.75" y="-340.5" font-family="Helvetica,sans-Serif" font-size="10.00">merged</text>
</g>
<g id="clust3" class="cluster">
<title>cluster_right</title>
<path fill="none" stroke="#b0b0b0" d="M1078.75,-97C1078.75,-97 1164.75,-97 1164.75,-97 1170.75,-97 1176.75,-103 1176.75,-109 1176.75,-109 1176.75,-332 1176.75,-332 1176.75,-338 1170.75,-344 1164.75,-344 1164.75,-344 1078.75,-344 1078.75,-344 1072.75,-344 1066.75,-338 1066.75,-332 1066.75,-332 1066.75,-109 1066.75,-109 1066.75,-103 1072.75,-97 1078.75,-97"/>
<text xml:space="preserve" text-anchor="middle" x="1121.75" y="-330.5" font-family="Helvetica,sans-Serif" font-size="10.00">right</text>
</g>
<!-- left_Firm -->
<g id="node1" class="node">
<title>left_Firm</title>
<polygon fill="#b7d1df" stroke="none" points="331.12,-338.12 331.12,-363.38 445.62,-363.38 445.62,-338.12 331.12,-338.12"/>
<polygon fill="none" stroke="#2c3e50" points="331.12,-338.12 331.12,-363.38 445.62,-363.38 445.62,-338.12 331.12,-338.12"/>
<text xml:space="preserve" text-anchor="start" x="370" y="-347.07" font-family="Helvetica,sans-Serif" font-weight="bold" font-size="14.00">Firm</text>
<polygon fill="none" stroke="#2c3e50" points="331.12,-320.38 331.12,-338.12 445.62,-338.12 445.62,-320.38 331.12,-320.38"/>
<text xml:space="preserve" text-anchor="start" x="335.12" y="-326.62" font-family="Helvetica,sans-Serif" font-size="8.00">natural</text>
<polygon fill="none" stroke="#2c3e50" points="331.12,-295.12 331.12,-320.38 445.62,-320.38 445.62,-295.12 331.12,-295.12"/>
<text xml:space="preserve" text-anchor="start" x="335.12" y="-304.07" font-family="Helvetica,sans-Serif" font-weight="bold" text-decoration="underline" font-size="14.00">firm_id</text>
<polygon fill="none" stroke="#2c3e50" points="331.12,-269.88 331.12,-295.12 445.62,-295.12 445.62,-269.88 331.12,-269.88"/>
<text xml:space="preserve" text-anchor="start" x="335.12" y="-277.62" font-family="Helvetica,sans-Serif" font-size="14.00">secondary_key</text>
<polygon fill="none" stroke="#2c3e50" points="331.12,-244.62 331.12,-269.88 445.62,-269.88 445.62,-244.62 331.12,-244.62"/>
<text xml:space="preserve" text-anchor="start" x="335.12" y="-252.38" font-family="Helvetica,sans-Serif" font-size="14.00">shared_raw</text>
<polygon fill="none" stroke="#2c3e50" points="330.12,-243.62 330.12,-364.38 446.62,-364.38 446.62,-243.62 330.12,-243.62"/>
</g>
<!-- merged_Company -->
<g id="node7" class="node">
<title>merged_Company</title>
<polygon fill="#ffe5b4" stroke="none" points="868.5,-299.25 868.5,-324.5 983,-324.5 983,-299.25 868.5,-299.25"/>
<polygon fill="none" stroke="#2c3e50" points="868.5,-299.25 868.5,-324.5 983,-324.5 983,-299.25 868.5,-299.25"/>
<text xml:space="preserve" text-anchor="start" x="888.25" y="-308.2" font-family="Helvetica,sans-Serif" font-weight="bold" font-size="14.00">Company</text>
<polygon fill="none" stroke="#2c3e50" points="868.5,-274 868.5,-299.25 983,-299.25 983,-274 868.5,-274"/>
<text xml:space="preserve" text-anchor="start" x="872.5" y="-282.95" font-family="Helvetica,sans-Serif" font-weight="bold" text-decoration="underline" font-size="14.00">company_id</text>
<polygon fill="none" stroke="#2c3e50" points="868.5,-248.75 868.5,-274 983,-274 983,-248.75 868.5,-248.75"/>
<text xml:space="preserve" text-anchor="start" x="872.5" y="-256.5" font-family="Helvetica,sans-Serif" font-size="14.00">secondary_key</text>
<polygon fill="none" stroke="#2c3e50" points="868.5,-223.5 868.5,-248.75 983,-248.75 983,-223.5 868.5,-223.5"/>
<text xml:space="preserve" text-anchor="start" x="872.5" y="-231.25" font-family="Helvetica,sans-Serif" font-size="14.00">shared_raw</text>
<polygon fill="none" stroke="#2c3e50" points="867.5,-222.5 867.5,-325.5 984,-325.5 984,-222.5 867.5,-222.5"/>
</g>
<!-- left_Firm&#45;&gt;merged_Company -->
<g id="edge1" class="edge">
<title>left_Firm&#45;&gt;merged_Company</title>
<path fill="none" stroke="#2c3e50" stroke-width="1.4" d="M446.42,-300.8C545.52,-295.25 749.1,-283.84 855.9,-277.86"/>
<polygon fill="#2c3e50" stroke="#2c3e50" stroke-width="1.4" points="855.9,-281.36 865.69,-277.31 855.51,-274.37 855.9,-281.36"/>
</g>
<!-- left_Firm&#45;&gt;merged_Company -->
<g id="edge2" class="edge">
<title>left_Firm:p_firm_id&#45;&gt;merged_Company:p_company_id</title>
<path fill="none" stroke="#1f5fbf" stroke-width="0.7" stroke-dasharray="5,2" d="M446.62,-307.75C630.26,-307.75 678.35,-287.44 856.69,-286.65"/>
<polygon fill="#1f5fbf" stroke="#1f5fbf" stroke-width="0.7" points="856.45,-290.15 866.44,-286.63 856.43,-283.15 856.45,-290.15"/>
<text xml:space="preserve" text-anchor="middle" x="822.12" y="-290.45" font-family="Helvetica,sans-Serif" font-size="9.00">company_id</text>
</g>
<!-- left_Shop -->
<g id="node2" class="node">
<title>left_Shop</title>
<polygon fill="#b7d1df" stroke="none" points="331.12,-199.12 331.12,-224.38 445.62,-224.38 445.62,-199.12 331.12,-199.12"/>
<polygon fill="none" stroke="#2c3e50" points="331.12,-199.12 331.12,-224.38 445.62,-224.38 445.62,-199.12 331.12,-199.12"/>
<text xml:space="preserve" text-anchor="start" x="367.75" y="-208.07" font-family="Helvetica,sans-Serif" font-weight="bold" font-size="14.00">Shop</text>
<polygon fill="none" stroke="#2c3e50" points="331.12,-181.38 331.12,-199.12 445.62,-199.12 445.62,-181.38 331.12,-181.38"/>
<text xml:space="preserve" text-anchor="start" x="335.12" y="-187.62" font-family="Helvetica,sans-Serif" font-size="8.00">natural</text>
<polygon fill="none" stroke="#2c3e50" points="331.12,-156.12 331.12,-181.38 445.62,-181.38 445.62,-156.12 331.12,-156.12"/>
<text xml:space="preserve" text-anchor="start" x="335.12" y="-165.07" font-family="Helvetica,sans-Serif" font-weight="bold" text-decoration="underline" font-size="14.00">shop_id</text>
<polygon fill="none" stroke="#2c3e50" points="331.12,-130.88 331.12,-156.12 445.62,-156.12 445.62,-130.88 331.12,-130.88"/>
<text xml:space="preserve" text-anchor="start" x="335.12" y="-138.62" font-family="Helvetica,sans-Serif" font-size="14.00">secondary_key</text>
<polygon fill="none" stroke="#2c3e50" points="331.12,-105.62 331.12,-130.88 445.62,-130.88 445.62,-105.62 331.12,-105.62"/>
<text xml:space="preserve" text-anchor="start" x="335.12" y="-113.38" font-family="Helvetica,sans-Serif" font-size="14.00">shared_raw</text>
<polygon fill="none" stroke="#2c3e50" points="330.12,-104.62 330.12,-225.38 446.62,-225.38 446.62,-104.62 330.12,-104.62"/>
</g>
<!-- canonical_Outlet -->
<g id="node8" class="node">
<title>canonical_Outlet</title>
<polygon fill="#ddd0e5" stroke="none" points="891,-131 891,-156.25 960.5,-156.25 960.5,-131 891,-131"/>
<polygon fill="none" stroke="#2c3e50" points="891,-131 891,-156.25 960.5,-156.25 960.5,-131 891,-131"/>
<text xml:space="preserve" text-anchor="start" x="900.25" y="-139.95" font-family="Helvetica,sans-Serif" font-weight="bold" font-size="14.00">Outlet</text>
<polygon fill="none" stroke="#2c3e50" points="891,-105.75 891,-131 960.5,-131 960.5,-105.75 891,-105.75"/>
<text xml:space="preserve" text-anchor="start" x="895" y="-113.5" font-family="Helvetica,sans-Serif" font-size="14.00">outlet_id</text>
<polygon fill="none" stroke="#2c3e50" points="890,-104.75 890,-157.25 961.5,-157.25 961.5,-104.75 890,-104.75"/>
</g>
<!-- left_Shop&#45;&gt;canonical_Outlet -->
<g id="edge3" class="edge">
<title>left_Shop:p_shop_id&#45;&gt;canonical_Outlet:p_outlet_id</title>
<path fill="none" stroke="#1f5fbf" stroke-width="0.7" stroke-dasharray="5,2" d="M446.62,-168.75C625.72,-168.75 690.9,-260.2 849.5,-177 852.16,-175.61 871.77,-142.66 882.84,-126.78"/>
<polygon fill="#1f5fbf" stroke="#1f5fbf" stroke-width="0.7" points="885.49,-129.06 889.31,-119.18 880.16,-124.52 885.49,-129.06"/>
<text xml:space="preserve" text-anchor="middle" x="822.12" y="-202.57" font-family="Helvetica,sans-Serif" font-size="9.00">outlet_id</text>
</g>
<!-- left_Shop&#45;&gt;canonical_Outlet -->
<g id="edge4" class="edge">
<title>left_Shop&#45;&gt;canonical_Outlet</title>
<path fill="none" stroke="#1f5fbf" stroke-dasharray="5,2" d="M446.42,-161.38C553.22,-154.6 781.35,-140.11 878.93,-133.91"/>
<polygon fill="#1f5fbf" stroke="#1f5fbf" points="878.9,-137.42 888.66,-133.29 878.46,-130.43 878.9,-137.42"/>
<text xml:space="preserve" text-anchor="middle" x="822.12" y="-141.92" font-family="Helvetica,sans-Serif" font-size="9.00">Outlet</text>
</g>
<!-- merged_Outlet -->
<g id="node10" class="node">
<title>merged_Outlet</title>
<polygon fill="#ffe5b4" stroke="none" points="886.88,-177.38 886.88,-202.62 964.62,-202.62 964.62,-177.38 886.88,-177.38"/>
<polygon fill="none" stroke="#c0392b" points="886.88,-177.38 886.88,-202.62 964.62,-202.62 964.62,-177.38 886.88,-177.38"/>
<text xml:space="preserve" text-anchor="start" x="890.88" y="-186.32" font-family="Helvetica,sans-Serif" font-weight="bold" font-size="14.00">Outlet </text>
<text xml:space="preserve" text-anchor="start" x="947.12" y="-186.32" font-family="Helvetica,sans-Serif" font-weight="bold" font-size="9.00">[1]</text>
<polygon fill="none" stroke="#c0392b" stroke-width="2" points="885.88,-176.38 885.88,-203.62 965.62,-203.62 965.62,-176.38 885.88,-176.38"/>
</g>
<!-- left_Shop&#45;&gt;merged_Outlet -->
<g id="edge5" class="edge">
<title>left_Shop&#45;&gt;merged_Outlet</title>
<path fill="none" stroke="#1e8449" stroke-width="1.2" stroke-dasharray="5,2" d="M446.49,-159.46C533.92,-152.25 705.89,-143.06 849.5,-165.75 858.27,-167.14 867.41,-169.37 876.17,-171.93"/>
<polygon fill="#1e8449" stroke="#1e8449" stroke-width="1.2" points="875.09,-175.26 885.68,-174.91 877.18,-168.58 875.09,-175.26"/>
<text xml:space="preserve" text-anchor="middle" x="822.12" y="-168.45" font-family="Helvetica,sans-Serif" font-size="9.00">declare</text>
</g>
<!-- left_Agreement -->
<g id="node3" class="node">
<title>left_Agreement</title>
<polygon fill="#b7d1df" stroke="none" points="328.5,-59.88 328.5,-85.12 448.25,-85.12 448.25,-59.88 328.5,-59.88"/>
<polygon fill="none" stroke="#2c3e50" points="328.5,-59.88 328.5,-85.12 448.25,-85.12 448.25,-59.88 328.5,-59.88"/>
<text xml:space="preserve" text-anchor="start" x="343.38" y="-68.83" font-family="Helvetica,sans-Serif" font-weight="bold" font-size="14.00">Agreement</text>
<polygon fill="none" stroke="#2c3e50" points="328.5,-42.12 328.5,-59.88 448.25,-59.88 448.25,-42.12 328.5,-42.12"/>
<text xml:space="preserve" text-anchor="start" x="332.5" y="-48.38" font-family="Helvetica,sans-Serif" font-size="8.00">natural</text>
<polygon fill="none" stroke="#2c3e50" points="328.5,-16.88 328.5,-42.12 448.25,-42.12 448.25,-16.88 328.5,-16.88"/>
<text xml:space="preserve" text-anchor="start" x="332.5" y="-25.82" font-family="Helvetica,sans-Serif" font-weight="bold" text-decoration="underline" font-size="14.00">agreement_id</text>
<polygon fill="none" stroke="#2c3e50" points="327.5,-15.88 327.5,-86.12 449.25,-86.12 449.25,-15.88 327.5,-15.88"/>
</g>
<!-- canonical_Contract -->
<g id="node9" class="node">
<title>canonical_Contract</title>
<polygon fill="#ddd0e5" stroke="none" points="887.25,-38.38 887.25,-63.62 964.25,-63.62 964.25,-38.38 887.25,-38.38"/>
<polygon fill="none" stroke="#2c3e50" points="887.25,-38.38 887.25,-63.62 964.25,-63.62 964.25,-38.38 887.25,-38.38"/>
<text xml:space="preserve" text-anchor="start" x="891.25" y="-47.33" font-family="Helvetica,sans-Serif" font-weight="bold" font-size="14.00">Contract</text>
<polygon fill="none" stroke="#2c3e50" points="886.25,-37.38 886.25,-64.62 965.25,-64.62 965.25,-37.38 886.25,-37.38"/>
</g>
<!-- left_Agreement&#45;&gt;canonical_Contract -->
<g id="edge6" class="edge">
<title>left_Agreement&#45;&gt;canonical_Contract</title>
<path fill="none" stroke="#1f5fbf" stroke-dasharray="5,2" d="M449.23,-51C555.68,-51 776.01,-51 874.85,-51"/>
<polygon fill="#1f5fbf" stroke="#1f5fbf" points="874.78,-54.5 884.78,-51 874.78,-47.5 874.78,-54.5"/>
<text xml:space="preserve" text-anchor="middle" x="822.12" y="-53.7" font-family="Helvetica,sans-Serif" font-size="9.00">Contract</text>
</g>
<!-- left_signedBy -->
<g id="node4" class="node">
<title>left_signedBy</title>
<polygon fill="#b7d1df" stroke="none" points="347.25,-383.38 347.25,-408.62 429.5,-408.62 429.5,-383.38 347.25,-383.38"/>
<polygon fill="none" stroke="#2c3e50" points="347.25,-383.38 347.25,-408.62 429.5,-408.62 429.5,-383.38 347.25,-383.38"/>
<text xml:space="preserve" text-anchor="start" x="351.25" y="-392.32" font-family="Helvetica,sans-Serif" font-weight="bold" font-size="14.00">signedBy</text>
<polygon fill="none" stroke="#2c3e50" points="346.25,-382.38 346.25,-409.62 430.5,-409.62 430.5,-382.38 346.25,-382.38"/>
</g>
<!-- right_Org -->
<g id="node5" class="node">
<title>right_Org</title>
<polygon fill="#bedfc8" stroke="none" points="1075.75,-288.5 1075.75,-313.75 1167.75,-313.75 1167.75,-288.5 1075.75,-288.5"/>
<polygon fill="none" stroke="#2c3e50" points="1075.75,-288.5 1075.75,-313.75 1167.75,-313.75 1167.75,-288.5 1075.75,-288.5"/>
<text xml:space="preserve" text-anchor="start" x="1107.12" y="-297.45" font-family="Helvetica,sans-Serif" font-weight="bold" font-size="14.00">Org</text>
<polygon fill="none" stroke="#2c3e50" points="1075.75,-270.75 1075.75,-288.5 1167.75,-288.5 1167.75,-270.75 1075.75,-270.75"/>
<text xml:space="preserve" text-anchor="start" x="1079.75" y="-277" font-family="Helvetica,sans-Serif" font-size="8.00">natural</text>
<polygon fill="none" stroke="#2c3e50" points="1075.75,-245.5 1075.75,-270.75 1167.75,-270.75 1167.75,-245.5 1075.75,-245.5"/>
<text xml:space="preserve" text-anchor="start" x="1079.75" y="-254.45" font-family="Helvetica,sans-Serif" font-weight="bold" text-decoration="underline" font-size="14.00">org_id</text>
<polygon fill="none" stroke="#2c3e50" points="1075.75,-220.25 1075.75,-245.5 1167.75,-245.5 1167.75,-220.25 1075.75,-220.25"/>
<text xml:space="preserve" text-anchor="start" x="1079.75" y="-228" font-family="Helvetica,sans-Serif" font-size="14.00">shared_raw</text>
<polygon fill="none" stroke="#2c3e50" points="1074.75,-219.25 1074.75,-314.75 1168.75,-314.75 1168.75,-219.25 1074.75,-219.25"/>
</g>
<!-- right_Branch -->
<g id="node6" class="node">
<title>right_Branch</title>
<polygon fill="#bedfc8" stroke="none" points="1075.75,-174.5 1075.75,-199.75 1167.75,-199.75 1167.75,-174.5 1075.75,-174.5"/>
<polygon fill="none" stroke="#2c3e50" points="1075.75,-174.5 1075.75,-199.75 1167.75,-199.75 1167.75,-174.5 1075.75,-174.5"/>
<text xml:space="preserve" text-anchor="start" x="1093.62" y="-183.45" font-family="Helvetica,sans-Serif" font-weight="bold" font-size="14.00">Branch</text>
<polygon fill="none" stroke="#2c3e50" points="1075.75,-156.75 1075.75,-174.5 1167.75,-174.5 1167.75,-156.75 1075.75,-156.75"/>
<text xml:space="preserve" text-anchor="start" x="1079.75" y="-163" font-family="Helvetica,sans-Serif" font-size="8.00">natural</text>
<polygon fill="none" stroke="#2c3e50" points="1075.75,-131.5 1075.75,-156.75 1167.75,-156.75 1167.75,-131.5 1075.75,-131.5"/>
<text xml:space="preserve" text-anchor="start" x="1079.75" y="-140.45" font-family="Helvetica,sans-Serif" font-weight="bold" text-decoration="underline" font-size="14.00">branch_id</text>
<polygon fill="none" stroke="#2c3e50" points="1075.75,-106.25 1075.75,-131.5 1167.75,-131.5 1167.75,-106.25 1075.75,-106.25"/>
<text xml:space="preserve" text-anchor="start" x="1079.75" y="-114" font-family="Helvetica,sans-Serif" font-size="14.00">shared_raw</text>
<polygon fill="none" stroke="#2c3e50" points="1074.75,-105.25 1074.75,-200.75 1168.75,-200.75 1168.75,-105.25 1074.75,-105.25"/>
</g>
<!-- merged_Company&#45;&gt;right_Org -->
<g id="edge7" class="edge">
<title>merged_Company&#45;&gt;right_Org</title>
<path fill="none" stroke="#2c3e50" stroke-width="1.4" d="M995.76,-271.51C1022.09,-270.56 1051.42,-269.5 1075.05,-268.65"/>
<polygon fill="#2c3e50" stroke="#2c3e50" stroke-width="1.4" points="995.89,-268 986.02,-271.86 996.14,-275 995.89,-268"/>
</g>
<!-- merged_Company&#45;&gt;right_Org -->
<g id="edge8" class="edge">
<title>merged_Company:p_company_id&#45;&gt;right_Org:p_org_id</title>
<path fill="none" stroke="#1f5fbf" stroke-width="0.7" stroke-dasharray="5,2" d="M995.05,-286.51C1019.66,-285.92 1030.17,-282.75 1056.75,-271 1065.75,-267.02 1064.91,-258.12 1074.75,-258.12"/>
<polygon fill="#1f5fbf" stroke="#1f5fbf" stroke-width="0.7" points="995.02,-283.01 985.06,-286.61 995.1,-290.01 995.02,-283.01"/>
<text xml:space="preserve" text-anchor="middle" x="1029.38" y="-288.9" font-family="Helvetica,sans-Serif" font-size="9.00">company_id</text>
</g>
<!-- canonical_Outlet&#45;&gt;right_Branch -->
<g id="edge9" class="edge">
<title>canonical_Outlet:p_outlet_id&#45;&gt;right_Branch:p_branch_id</title>
<path fill="none" stroke="#1f5fbf" stroke-width="0.7" stroke-dasharray="5,2" d="M972.29,-117.98C1006.76,-115.45 1022.47,-102.14 1056.75,-119.75 1068.73,-125.9 1061.28,-144.12 1074.75,-144.12"/>
<polygon fill="#1f5fbf" stroke="#1f5fbf" stroke-width="0.7" points="972.42,-114.47 962.56,-118.34 972.68,-121.47 972.42,-114.47"/>
<text xml:space="preserve" text-anchor="middle" x="1029.38" y="-122.45" font-family="Helvetica,sans-Serif" font-size="9.00">outlet_id</text>
</g>
<!-- canonical_Outlet&#45;&gt;right_Branch -->
<g id="edge10" class="edge">
<title>canonical_Outlet&#45;&gt;right_Branch</title>
<path fill="none" stroke="#1f5fbf" stroke-dasharray="5,2" d="M972.76,-136.22C1003.67,-139.72 1044.22,-144.32 1075.05,-147.82"/>
<polygon fill="#1f5fbf" stroke="#1f5fbf" points="973.27,-132.75 962.94,-135.1 972.48,-139.71 973.27,-132.75"/>
<text xml:space="preserve" text-anchor="middle" x="1029.38" y="-147.96" font-family="Helvetica,sans-Serif" font-size="9.00">Outlet</text>
</g>
<!-- merged_Outlet&#45;&gt;right_Branch -->
<g id="edge11" class="edge">
<title>merged_Outlet&#45;&gt;right_Branch</title>
<path fill="none" stroke="#1e8449" stroke-width="1.2" stroke-dasharray="5,2" d="M978.02,-180.22C1008.13,-174.48 1045.85,-167.29 1074.95,-161.74"/>
<polygon fill="#1e8449" stroke="#1e8449" stroke-width="1.2" points="977.43,-176.77 968.26,-182.08 978.74,-183.65 977.43,-176.77"/>
<text xml:space="preserve" text-anchor="middle" x="1029.38" y="-177.51" font-family="Helvetica,sans-Serif" font-size="9.00">declare</text>
</g>
<!-- legend -->
<g id="node11" class="node">
<title>legend</title>
<text xml:space="preserve" text-anchor="start" x="4" y="-477.95" font-family="Helvetica,sans-Serif" font-weight="bold" font-size="14.00">findings</text>
<text xml:space="preserve" text-anchor="start" x="4" y="-454.7" font-family="Helvetica,sans-Serif" font-weight="bold" font-size="14.00" fill="#c0392b">[1]</text>
<text xml:space="preserve" text-anchor="start" x="33.25" y="-453.5" font-family="Helvetica,sans-Serif" font-size="14.00" fill="#c0392b">name_collision</text>
<text xml:space="preserve" text-anchor="start" x="145" y="-453.5" font-family="Helvetica,sans-Serif" font-size="14.00">merge is incomplete (vertex name collision): [&#39;Outlet&#39;] exist on both sides and no equi…</text>
</g>
</g>
</svg>
