<?xml version="1.0" encoding="UTF-8" standalone="no"?>
<!DOCTYPE svg PUBLIC "-//W3C//DTD SVG 1.1//EN"
 "http://www.w3.org/Graphics/SVG/1.1/DTD/svg11.dtd">
<!-- Generated by graphviz version 14.1.5 (20260411.2331)
 -->
<!-- Pages: 1 -->
<svg width="504pt" height="394pt"
 viewBox="0.00 0.00 504.00 394.00" xmlns="http://www.w3.org/2000/svg" xmlns:xlink="http://www.w3.org/1999/xlink">
<g id="graph0" class="graph" transform="scale(1 1) rotate(0) translate(4 389.5)">
<polygon fill="white" stroke="none" points="-4,4 -4,-389.5 499.88,-389.5 499.88,4 -4,4"/>
<text xml:space="preserve" text-anchor="middle" x="247.94" y="-368.2" font-family="Helvetica,sans-Serif" font-size="14.00">source&#45;a + source&#45;b — merges</text>
<g id="clust1" class="cluster">
<title>cluster_left</title>
<path fill="none" stroke="#b0b0b0" d="M20,-8C20,-8 128.5,-8 128.5,-8 134.5,-8 140.5,-14 140.5,-20 140.5,-20 140.5,-292 140.5,-292 140.5,-298 134.5,-304 128.5,-304 128.5,-304 20,-304 20,-304 14,-304 8,-298 8,-292 8,-292 8,-20 8,-20 8,-14 14,-8 20,-8"/>
<text xml:space="preserve" text-anchor="middle" x="74.25" y="-290.5" font-family="Helvetica,sans-Serif" font-size="10.00">left</text>
</g>
<g id="clust2" class="cluster">
<title>cluster_merged</title>
<path fill="none" stroke="#b0b0b0" d="M236.38,-71C236.38,-71 344.88,-71 344.88,-71 350.88,-71 356.88,-77 356.88,-83 356.88,-83 356.88,-274 356.88,-274 356.88,-280 350.88,-286 344.88,-286 344.88,-286 236.38,-286 236.38,-286 230.38,-286 224.38,-280 224.38,-274 224.38,-274 224.38,-83 224.38,-83 224.38,-77 230.38,-71 236.38,-71"/>
<text xml:space="preserve" text-anchor="middle" x="290.62" y="-272.5" font-family="Helvetica,sans-Serif" font-size="10.00">merged</text>
</g>
<g id="clust3" class="cluster">
<title>cluster_right</title>
<path fill="none" stroke="#b0b0b0" d="M389.88,-81C389.88,-81 475.88,-81 475.88,-81 481.88,-81 487.88,-87 487.88,-93 487.88,-93 487.88,-316 487.88,-316 487.88,-322 481.88,-328 475.88,-328 475.88,-328 389.88,-328 389.88,-328 383.88,-328 377.88,-322 377.88,-316 377.88,-316 377.88,-93 377.88,-93 377.88,-87 383.88,-81 389.88,-81"/>
<text xml:space="preserve" text-anchor="middle" x="432.88" y="-314.5" font-family="Helvetica,sans-Serif" font-size="10.00">right</text>
</g>
<!-- left_Firm -->
<g id="node1" class="node">
<title>left_Firm</title>
<polygon fill="#b7d1df" stroke="none" points="17,-249.12 17,-274.38 131.5,-274.38 131.5,-249.12 17,-249.12"/>
<polygon fill="none" stroke="#2c3e50" points="17,-249.12 17,-274.38 131.5,-274.38 131.5,-249.12 17,-249.12"/>
<text xml:space="preserve" text-anchor="start" x="55.88" y="-258.07" font-family="Helvetica,sans-Serif" font-weight="bold" font-size="14.00">Firm</text>
<polygon fill="none" stroke="#2c3e50" points="17,-231.38 17,-249.12 131.5,-249.12 131.5,-231.38 17,-231.38"/>
<text xml:space="preserve" text-anchor="start" x="21" y="-237.62" font-family="Helvetica,sans-Serif" font-size="8.00">natural</text>
<polygon fill="none" stroke="#2c3e50" points="17,-206.12 17,-231.38 131.5,-231.38 131.5,-206.12 17,-206.12"/>
<text xml:space="preserve" text-anchor="start" x="21" y="-215.07" font-family="Helvetica,sans-Serif" font-weight="bold" text-decoration="underline" font-size="14.00">firm_id</text>
<polygon fill="none" stroke="#2c3e50" points="17,-180.88 17,-206.12 131.5,-206.12 131.5,-180.88 17,-180.88"/>
<text xml:space="preserve" text-anchor="start" x="21" y="-188.62" font-family="Helvetica,sans-Serif" font-size="14.00">secondary_key</text>
<polygon fill="none" stroke="#2c3e50" points="17,-155.62 17,-180.88 131.5,-180.88 131.5,-155.62 17,-155.62"/>
<text xml:space="preserve" text-anchor="start" x="21" y="-163.38" font-family="Helvetica,sans-Serif" font-size="14.00">shared_raw</text>
<polygon fill="none" stroke="#2c3e50" points="16,-154.62 16,-275.38 132.5,-275.38 132.5,-154.62 16,-154.62"/>
</g>
<!-- merged_Company -->
<g id="node5" class="node">
<title>merged_Company</title>
<polygon fill="#ffe5b4" stroke="none" points="233.38,-231.12 233.38,-256.38 347.88,-256.38 347.88,-231.12 233.38,-231.12"/>
<polygon fill="none" stroke="#2c3e50" points="233.38,-231.12 233.38,-256.38 347.88,-256.38 347.88,-231.12 233.38,-231.12"/>
<text xml:space="preserve" text-anchor="start" x="253.12" y="-240.07" font-family="Helvetica,sans-Serif" font-weight="bold" font-size="14.00">Company</text>
<polygon fill="none" stroke="#2c3e50" points="233.38,-205.88 233.38,-231.12 347.88,-231.12 347.88,-205.88 233.38,-205.88"/>
<text xml:space="preserve" text-anchor="start" x="237.38" y="-214.82" font-family="Helvetica,sans-Serif" font-weight="bold" text-decoration="underline" font-size="14.00">company_id</text>
<polygon fill="none" stroke="#2c3e50" points="233.38,-180.62 233.38,-205.88 347.88,-205.88 347.88,-180.62 233.38,-180.62"/>
<text xml:space="preserve" text-anchor="start" x="237.38" y="-188.38" font-family="Helvetica,sans-Serif" font-size="14.00">secondary_key</text>
<polygon fill="none" stroke="#2c3e50" points="233.38,-155.38 233.38,-180.62 347.88,-180.62 347.88,-155.38 233.38,-155.38"/>
<text xml:space="preserve" text-anchor="start" x="237.38" y="-163.12" font-family="Helvetica,sans-Serif" font-size="14.00">shared_raw</text>
<polygon fill="none" stroke="#2c3e50" points="233.38,-130.12 233.38,-155.38 347.88,-155.38 347.88,-130.12 233.38,-130.12"/>
<text xml:space="preserve" text-anchor="start" x="237.38" y="-139.07" font-family="Helvetica,sans-Serif" font-weight="bold" text-decoration="underline" font-size="14.00">shop_id</text>
<polygon fill="none" stroke="#2c3e50" points="233.38,-104.88 233.38,-130.12 347.88,-130.12 347.88,-104.88 233.38,-104.88"/>
<text xml:space="preserve" text-anchor="start" x="237.38" y="-113.83" font-family="Helvetica,sans-Serif" font-weight="bold" text-decoration="underline" font-size="14.00">org_id</text>
<polygon fill="none" stroke="#2c3e50" points="233.38,-79.62 233.38,-104.88 347.88,-104.88 347.88,-79.62 233.38,-79.62"/>
<text xml:space="preserve" text-anchor="start" x="237.38" y="-88.58" font-family="Helvetica,sans-Serif" font-weight="bold" text-decoration="underline" font-size="14.00">branch_id</text>
<polygon fill="none" stroke="#2c3e50" points="232.38,-78.62 232.38,-257.38 348.88,-257.38 348.88,-78.62 232.38,-78.62"/>
</g>
<!-- left_Firm&#45;&gt;merged_Company -->
<g id="edge1" class="edge">
<title>left_Firm&#45;&gt;merged_Company</title>
<path fill="none" stroke="#2c3e50" stroke-width="1.4" d="M132.42,-202.05C141.52,-200.01 150.83,-197.94 159.62,-196 179.51,-191.62 201.12,-186.93 220.91,-182.67"/>
<polygon fill="#2c3e50" stroke="#2c3e50" stroke-width="1.4" points="221.53,-186.12 230.58,-180.6 220.06,-179.28 221.53,-186.12"/>
</g>
<!-- left_Firm&#45;&gt;merged_Company -->
<g id="edge2" class="edge">
<title>left_Firm:p_firm_id&#45;&gt;merged_Company:p_company_id</title>
<path fill="none" stroke="#1f5fbf" stroke-width="0.7" stroke-dasharray="5,2" d="M132.5,-218.75C173.07,-218.75 185.83,-218.54 221.63,-218.51"/>
<polygon fill="#1f5fbf" stroke="#1f5fbf" stroke-width="0.7" points="221.32,-222.01 231.32,-218.5 221.31,-215.01 221.32,-222.01"/>
<text xml:space="preserve" text-anchor="middle" x="187" y="-221.41" font-family="Helvetica,sans-Serif" font-size="9.00">company_id</text>
</g>
<!-- left_Shop -->
<g id="node2" class="node">
<title>left_Shop</title>
<polygon fill="#b7d1df" stroke="none" points="17,-110.12 17,-135.38 131.5,-135.38 131.5,-110.12 17,-110.12"/>
<polygon fill="none" stroke="#2c3e50" points="17,-110.12 17,-135.38 131.5,-135.38 131.5,-110.12 17,-110.12"/>
<text xml:space="preserve" text-anchor="start" x="53.62" y="-119.08" font-family="Helvetica,sans-Serif" font-weight="bold" font-size="14.00">Shop</text>
<polygon fill="none" stroke="#2c3e50" points="17,-92.38 17,-110.12 131.5,-110.12 131.5,-92.38 17,-92.38"/>
<text xml:space="preserve" text-anchor="start" x="21" y="-98.62" font-family="Helvetica,sans-Serif" font-size="8.00">natural</text>
<polygon fill="none" stroke="#2c3e50" points="17,-67.12 17,-92.38 131.5,-92.38 131.5,-67.12 17,-67.12"/>
<text xml:space="preserve" text-anchor="start" x="21" y="-76.08" font-family="Helvetica,sans-Serif" font-weight="bold" text-decoration="underline" font-size="14.00">shop_id</text>
<polygon fill="none" stroke="#2c3e50" points="17,-41.88 17,-67.12 131.5,-67.12 131.5,-41.88 17,-41.88"/>
<text xml:space="preserve" text-anchor="start" x="21" y="-49.62" font-family="Helvetica,sans-Serif" font-size="14.00">secondary_key</text>
<polygon fill="none" stroke="#2c3e50" points="17,-16.62 17,-41.88 131.5,-41.88 131.5,-16.62 17,-16.62"/>
<text xml:space="preserve" text-anchor="start" x="21" y="-24.38" font-family="Helvetica,sans-Serif" font-size="14.00">shared_raw</text>
<polygon fill="none" stroke="#2c3e50" points="16,-15.62 16,-136.38 132.5,-136.38 132.5,-15.62 16,-15.62"/>
</g>
<!-- left_Shop&#45;&gt;merged_Company -->
<g id="edge3" class="edge">
<title>left_Shop&#45;&gt;merged_Company</title>
<path fill="none" stroke="#2c3e50" stroke-width="1.4" d="M132.42,-100.53C159.91,-112.33 193.07,-126.56 221.83,-138.91"/>
<polygon fill="#2c3e50" stroke="#2c3e50" stroke-width="1.4" points="220.1,-141.97 230.67,-142.7 222.86,-135.54 220.1,-141.97"/>
</g>
<!-- right_Org -->
<g id="node3" class="node">
<title>right_Org</title>
<polygon fill="#bedfc8" stroke="none" points="386.88,-272.5 386.88,-297.75 478.88,-297.75 478.88,-272.5 386.88,-272.5"/>
<polygon fill="none" stroke="#2c3e50" points="386.88,-272.5 386.88,-297.75 478.88,-297.75 478.88,-272.5 386.88,-272.5"/>
<text xml:space="preserve" text-anchor="start" x="418.25" y="-281.45" font-family="Helvetica,sans-Serif" font-weight="bold" font-size="14.00">Org</text>
<polygon fill="none" stroke="#2c3e50" points="386.88,-254.75 386.88,-272.5 478.88,-272.5 478.88,-254.75 386.88,-254.75"/>
<text xml:space="preserve" text-anchor="start" x="390.88" y="-261" font-family="Helvetica,sans-Serif" font-size="8.00">natural</text>
<polygon fill="none" stroke="#2c3e50" points="386.88,-229.5 386.88,-254.75 478.88,-254.75 478.88,-229.5 386.88,-229.5"/>
<text xml:space="preserve" text-anchor="start" x="390.88" y="-238.45" font-family="Helvetica,sans-Serif" font-weight="bold" text-decoration="underline" font-size="14.00">org_id</text>
<polygon fill="none" stroke="#2c3e50" points="386.88,-204.25 386.88,-229.5 478.88,-229.5 478.88,-204.25 386.88,-204.25"/>
<text xml:space="preserve" text-anchor="start" x="390.88" y="-212" font-family="Helvetica,sans-Serif" font-size="14.00">shared_raw</text>
<polygon fill="none" stroke="#2c3e50" points="385.88,-203.25 385.88,-298.75 479.88,-298.75 479.88,-203.25 385.88,-203.25"/>
</g>
<!-- right_Branch -->
<g id="node4" class="node">
<title>right_Branch</title>
<polygon fill="#bedfc8" stroke="none" points="386.88,-158.5 386.88,-183.75 478.88,-183.75 478.88,-158.5 386.88,-158.5"/>
<polygon fill="none" stroke="#2c3e50" points="386.88,-158.5 386.88,-183.75 478.88,-183.75 478.88,-158.5 386.88,-158.5"/>
<text xml:space="preserve" text-anchor="start" x="404.75" y="-167.45" font-family="Helvetica,sans-Serif" font-weight="bold" font-size="14.00">Branch</text>
<polygon fill="none" stroke="#2c3e50" points="386.88,-140.75 386.88,-158.5 478.88,-158.5 478.88,-140.75 386.88,-140.75"/>
<text xml:space="preserve" text-anchor="start" x="390.88" y="-147" font-family="Helvetica,sans-Serif" font-size="8.00">natural</text>
<polygon fill="none" stroke="#2c3e50" points="386.88,-115.5 386.88,-140.75 478.88,-140.75 478.88,-115.5 386.88,-115.5"/>
<text xml:space="preserve" text-anchor="start" x="390.88" y="-124.45" font-family="Helvetica,sans-Serif" font-weight="bold" text-decoration="underline" font-size="14.00">branch_id</text>
<polygon fill="none" stroke="#2c3e50" points="386.88,-90.25 386.88,-115.5 478.88,-115.5 478.88,-90.25 386.88,-90.25"/>
<text xml:space="preserve" text-anchor="start" x="390.88" y="-98" font-family="Helvetica,sans-Serif" font-size="14.00">shared_raw</text>
<polygon fill="none" stroke="#2c3e50" points="385.88,-89.25 385.88,-184.75 479.88,-184.75 479.88,-89.25 385.88,-89.25"/>
</g>
<!-- merged_Company&#45;&gt;right_Org -->
<g id="edge4" class="edge">
<title>merged_Company&#45;&gt;right_Org</title>
<path fill="none" stroke="#2c3e50" stroke-width="1.4" d="M358.97,-207.85C368.14,-213.28 377.38,-218.75 386.05,-223.88"/>
<polygon fill="#2c3e50" stroke="#2c3e50" stroke-width="1.4" points="360.88,-204.92 350.49,-202.84 357.32,-210.94 360.88,-204.92"/>
</g>
<!-- merged_Company&#45;&gt;right_Branch -->
<g id="edge5" class="edge">
<title>merged_Company&#45;&gt;right_Branch</title>
<path fill="none" stroke="#2c3e50" stroke-width="1.4" d="M360.45,-152.79C369.13,-150.87 377.84,-148.94 386.05,-147.13"/>
<polygon fill="#2c3e50" stroke="#2c3e50" stroke-width="1.4" points="359.75,-149.36 350.74,-154.93 361.26,-156.19 359.75,-149.36"/>
</g>
<!-- legend -->
<g id="node6" class="node">
<title>legend</title>
<text xml:space="preserve" text-anchor="start" x="10.88" y="-343.95" font-family="Helvetica,sans-Serif" font-weight="bold" font-size="14.00">findings</text>
<text xml:space="preserve" text-anchor="start" x="10.88" y="-319.5" font-family="Helvetica,sans-Serif" font-size="14.00">no conflicts found</text>
</g>
</g>
</svg>
